<svg xmlns="http://www.w3.org/2000/svg" viewBox="0 0 75 56.25" height="75" width="100" version="1"><path d="M0 28.13v28.12h75V0H42.4l-.27.34c-1.44 1.81-4.44 2.6-6.97 1.83A6.33 6.33 0 0 1 32.38.36L32.09 0H0zm6.9-25c.42.2.42.2.42 2.33 0 1.82 0 1.88-.12 2.04-.27.34-.36.36-1.96.36-1.57 0-1.65-.02-1.93-.33-.11-.12-.12-.22-.13-2.06l-.02-1.93.16-.19c.28-.33.38-.34 1.92-.35 1.31 0 1.42 0 1.66.12zm9.35-.05c.1.04.25.16.33.24l.15.16.02 1.9c.01 2.59.11 2.46-1.87 2.5-1.53.02-1.84-.02-2.1-.33l-.18-.2V5.42c0-2.14-.01-2.08.4-2.3.2-.1.34-.11 1.64-.12 1.07 0 1.46.02 1.6.08zm9.41.01c.13.06.3.18.36.27.11.16.12.25.12 2.05 0 1.32-.02 1.92-.08 2.03a.8.8 0 0 1-.27.29c-.2.12-.27.13-1.7.13-1.67 0-1.77-.02-2-.4-.11-.18-.12-.29-.1-2.09L22 3.48l.15-.16c.27-.3.39-.31 1.89-.32a5.5 5.5 0 0 1 1.62.1zm9.48.02c.42.2.43.22.43 2.35 0 1.82 0 1.88-.13 2.04-.27.34-.35.36-1.95.36-1.57 0-1.66-.02-1.94-.33-.1-.12-.11-.22-.13-2.03-.02-2.17-.02-2.19.41-2.39.23-.1.4-.1 1.66-.1 1.25 0 1.43 0 1.65.1zm9.4 0c.1.05.25.18.33.3.13.2.13.22.13 2.03 0 2.52.1 2.4-1.88 2.43-1.53.03-1.84-.01-2.1-.32l-.18-.2V5.42c0-2.16-.01-2.1.43-2.3.21-.1.4-.12 1.65-.11 1.2 0 1.44 0 1.61.1zm9.42 0c.43.21.42.18.43 2.3 0 2.12.01 2.07-.37 2.32-.2.12-.26.13-1.7.13-2.23 0-2.12.14-2.1-2.52l.02-1.86.15-.16c.28-.3.39-.31 1.93-.32 1.26 0 1.46.01 1.64.1zm9.42 0c.42.2.43.22.43 2.35 0 1.82 0 1.88-.12 2.04-.27.34-.36.36-1.96.36s-1.69-.02-1.96-.36c-.12-.16-.12-.22-.12-2.04 0-2.13 0-2.15.43-2.35.22-.1.4-.1 1.65-.1s1.43 0 1.65.1zm9.4 0c.1.05.26.18.33.3.13.2.13.22.13 2 0 2.54.08 2.43-1.88 2.46-1.48.03-1.83-.02-2.1-.29l-.18-.18V5.45c0-2.17-.01-2.11.4-2.33.2-.1.34-.11 1.65-.11 1.23 0 1.47 0 1.64.1zm-.9 5.72c.76.12 1.3.55 1.42 1.14.05.2.06 5.38.05 18.18l-.02 17.9-.16.27c-.2.34-.54.6-.94.72-.27.08-4.4.09-34.73.09s-34.46-.01-34.73-.09c-.4-.12-.74-.38-.94-.72l-.16-.28-.02-17.89c0-12.8 0-17.97.05-18.18.12-.56.67-1.02 1.36-1.14.46-.07 68.36-.08 68.83 0zM6.79 48.4c.42.2.43.23.43 2.3 0 2.57.13 2.42-2.08 2.42-1.53 0-1.7-.02-1.94-.3-.1-.12-.11-.2-.11-2.11 0-1.9 0-2 .11-2.12.24-.26.38-.29 1.93-.3 1.24 0 1.48.02 1.66.1zm9.44.01c.4.2.42.29.42 2.3 0 2-.01 2.06-.4 2.28-.22.13-.3.13-1.71.13-1.38 0-1.51-.01-1.68-.12-.4-.24-.4-.23-.39-2.3.02-2.08.01-2.06.39-2.29.17-.1.3-.11 1.67-.11 1.35 0 1.5 0 1.7.11zm9.39-.02c.08.04.22.15.28.24.12.15.13.21.13 2.08 0 2.59.15 2.41-2.06 2.41-2.24 0-2.1.16-2.1-2.41 0-2.57-.15-2.4 2.1-2.41 1.19 0 1.51.01 1.65.09zm9.41 0c.42.2.43.24.43 2.32 0 2.56.13 2.41-2.07 2.41-1.58 0-1.73-.02-1.96-.32-.13-.16-.13-.2-.13-2.08 0-2.12 0-2.08.37-2.31.17-.1.31-.11 1.67-.11 1.27 0 1.52 0 1.7.1zm9.38-.01c.09.05.22.15.3.23.13.14.13.15.14 2.09l.01 1.94-.14.16c-.3.31-.35.32-1.95.32-1.36 0-1.5-.01-1.67-.12-.4-.24-.4-.22-.38-2.34 0-2.1-.01-2 .4-2.25.15-.1.31-.11 1.65-.11 1.16 0 1.52.01 1.64.08zm9.45 0c.09.05.22.16.28.25.12.15.13.21.13 2.08 0 2.59.15 2.41-2.05 2.41-1.36 0-1.5-.01-1.7-.12-.4-.2-.41-.23-.41-2.3 0-2.56-.14-2.4 2.1-2.4 1.2 0 1.51.01 1.65.09zm9.41.02c.43.2.43.23.43 2.3 0 2.57.13 2.42-2.07 2.42-1.57 0-1.73-.02-1.96-.32-.13-.16-.13-.2-.13-2.08 0-2.12 0-2.08.38-2.31.16-.1.3-.11 1.66-.11 1.27 0 1.52 0 1.7.1zm9.38-.02c.1.05.22.15.3.23.13.15.13.15.14 2.09l.02 1.94-.15.16c-.3.31-.35.32-1.93.32-1.59 0-1.64-.01-1.94-.32l-.14-.16V50.7c.02-2.14 0-2.04.4-2.3.16-.1.32-.1 1.66-.1 1.16 0 1.52.01 1.64.08z"/></svg>